<svg xmlns="http://www.w3.org/2000/svg" viewBox="0 0 750 500"><g id="freepik--background-simple--inject-18"><path d="M568.54,48.08S466.15,19,389.43,38,83.76,224.89,67.14,236.6,16.59,273.47,27,356.92,96.67,459.24,143.93,459s390.1.19,462-16.75,110.45-153.16,108-214.57S650.81,69.84,568.54,48.08Z" style="fill:#cfcdcd"></path><path d="M568.54,48.08S466.15,19,389.43,38,83.76,224.89,67.14,236.6,16.59,273.47,27,356.92,96.67,459.24,143.93,459s390.1.19,462-16.75,110.45-153.16,108-214.57S650.81,69.84,568.54,48.08Z" style="fill:#cfcdcd;opacity:0.8000000000000001; min-width:200px;"></path></g></svg>
