<svg xmlns="http://www.w3.org/2000/svg" viewBox="0 0 500 500"><g id="freepik--background-simple--inject-163"><path d="M418.84,123.09S394.33,73.35,340.19,66s-91.92,28.56-131.76,47c-20.86,9.65-44.69,5.9-66.84,10.57C70.78,138.46,44.1,232,73.6,285.22c25.54,46.06,70.48,70,138.92,75.53s116.44,12,177.72-33.16S447.44,188.5,418.84,123.09Z" style="fill:#ff3A9"></path><path d="M418.84,123.09S394.33,73.35,340.19,66s-91.92,28.56-131.76,47c-20.86,9.65-44.69,5.9-66.84,10.57C70.78,138.46,44.1,232,73.6,285.22c25.54,46.06,70.48,70,138.92,75.53s116.44,12,177.72-33.16S447.44,188.5,418.84,123.09Z" style="fill:#fff;opacity:0.7000000000000001"></path></g></svg>
