<svg xmlns="http://www.w3.org/2000/svg" xmlns:xlink="http://www.w3.org/1999/xlink" viewBox="0 0 500 500"><defs><clipPath id="freepik--clip-path--inject-62"><polygon points="348.42 301.82 57.62 320.19 57.62 80.08 348.42 96.12 348.42 301.82" style="fill:#ffc800;stroke:#ffc800;stroke-linecap:round;stroke-linejoin:round"></polygon></clipPath></defs><g id="freepik--background-simple--inject-62"><path d="M479.58,213.15c-1-6.19-2.19-12.27-3.49-18.19C465.49,146.77,441,95.64,393,76.18,337.78,53.8,259.4,60,210,103.71c-38,33.6-115,53.88-158,104.82C7.43,261.34-1.88,360.31,56,400.26c41.17,28.41,92.07,6,137.92-3.39,26.11-5.34,48.71-2.32,74.45,0,44.73,4,91.06,7,136.17-3,22.28-5,42.09-14.06,54.65-34.72C485.57,315.7,487.39,261,479.58,213.15Z" style="fill:#ffc800"></path><path d="M479.58,213.15c-1-6.19-2.19-12.27-3.49-18.19C465.49,146.77,441,95.64,393,76.18,337.78,53.8,259.4,60,210,103.71c-38,33.6-115,53.88-158,104.82C7.43,261.34-1.88,360.31,56,400.26c41.17,28.41,92.07,6,137.92-3.39,26.11-5.34,48.71-2.32,74.45,0,44.73,4,91.06,7,136.17-3,22.28-5,42.09-14.06,54.65-34.72C485.57,315.7,487.39,261,479.58,213.15Z" style="fill:#ffc800;opacity:0.1000000000000001"></path></g><g id="freepik--Graphics--inject-62"><path d="M49,323h54a6,6,0,0,1,6,6h0a6,6,0,0,1-6,6H42a6,6,0,0,1-6-6h0a6,6,0,0,1,6-6h1.5" style="fill:none;stroke:#ffc800;stroke-miterlimit:10"></path><path d="M91,342.85h12a6,6,0,0,1,6,6h0a6,6,0,0,1-6,6H42a6,6,0,0,1-6-6h0a6,6,0,0,1,6-6H85.5" style="fill:none;stroke:#263238;stroke-miterlimit:10"></path><path d="M103,374.71H42a6,6,0,0,1-6-6h0a6,6,0,0,1,6-6h61a6,6,0,0,1,6,6h0A6,6,0,0,1,103,374.71Z" style="fill:none;stroke:#263238;stroke-miterlimit:10"></path><polyline points="85.5 303 116 303 116 385.5 75.5 385.5" style="fill:none;stroke:#263238;stroke-miterlimit:10"></polyline><polyline points="42.5 385.5 29.5 385.5 29.5 303 78.5 303" style="fill:none;stroke:#263238;stroke-miterlimit:10"></polyline><line x1="68.5" y1="385.5" x2="47.5" y2="385.5" style="fill:none;stroke:#263238;stroke-miterlimit:10"></line><line x1="34" y1="315" x2="111" y2="315" style="fill:none;stroke:#263238;stroke-miterlimit:10"></line><path d="M125,54.15h54a6,6,0,0,1,6,6h0a6,6,0,0,1-6,6H118a6,6,0,0,1-6-6h0a6,6,0,0,1,6-6h1.5" style="fill:none;stroke:#263238;stroke-miterlimit:10"></path><path d="M167,74h12a6,6,0,0,1,6,6h0a6,6,0,0,1-6,6H118a6,6,0,0,1-6-6h0a6,6,0,0,1,6-6h43.5" style="fill:none;stroke:#263238;stroke-miterlimit:10"></path><rect x="112" y="93.85" width="73" height="12" rx="6" style="fill:none;stroke:#263238;stroke-miterlimit:10"></rect><polyline points="161.5 34.15 192 34.15 192 116.65 151.5 116.65" style="fill:none;stroke:#263238;stroke-miterlimit:10"></polyline><polyline points="118.5 116.65 105.5 116.65 105.5 34.15 154.5 34.15" style="fill:none;stroke:#263238;stroke-miterlimit:10"></polyline><line x1="144.5" y1="116.65" x2="123.5" y2="116.65" style="fill:none;stroke:#263238;stroke-miterlimit:10"></line><line x1="110" y1="46.15" x2="187" y2="46.15" style="fill:none;stroke:#263238;stroke-miterlimit:10"></line><path d="M376.05,73.33H344.52a2.41,2.41,0,0,1-2.41-2.41V61.76a2.41,2.41,0,0,1,2.41-2.41h42.25a2.41,2.41,0,0,1,2.41,2.41v3.59" style="fill:none;stroke:#263238;stroke-miterlimit:10"></path><path d="M375.75,88.23V68.64a3.15,3.15,0,0,1,3.14-3.14h41.84a3.15,3.15,0,0,1,3.14,3.14V92.1" style="fill:none;stroke:#263238;stroke-miterlimit:10"></path><path d="M423.87,111.42v24.44a3.15,3.15,0,0,1-3.14,3.14H378.89a3.15,3.15,0,0,1-3.14-3.14V92.93" style="fill:none;stroke:#263238;stroke-miterlimit:10"></path><line x1="378.72" y1="76.95" x2="420.87" y2="76.95" style="fill:none;stroke:#263238;stroke-miterlimit:10"></line><line x1="398.86" y1="89.66" x2="420.87" y2="89.66" style="fill:none;stroke:#263238;stroke-miterlimit:10"></line><line x1="378.72" y1="89.66" x2="395.42" y2="89.66" style="fill:none;stroke:#263238;stroke-miterlimit:10"></line><line x1="378.72" y1="102.37" x2="420.87" y2="102.37" style="fill:none;stroke:#263238;stroke-miterlimit:10"></line><line x1="413.32" y1="115.08" x2="420.87" y2="115.08" style="fill:none;stroke:#263238;stroke-miterlimit:10"></line><line x1="378.72" y1="115.08" x2="409.52" y2="115.08" style="fill:none;stroke:#263238;stroke-miterlimit:10"></line><line x1="378.72" y1="127.8" x2="420.87" y2="127.8" style="fill:none;stroke:#263238;stroke-miterlimit:10"></line><line x1="350.62" y1="66.02" x2="373.59" y2="66.02" style="fill:none;stroke:#263238;stroke-miterlimit:10"></line><path d="M214.1,356.18H170.64a3.33,3.33,0,0,1-3.33-3.32V340.23a3.33,3.33,0,0,1,3.33-3.33h58.23a3.33,3.33,0,0,1,3.33,3.33v4.95" style="fill:none;stroke:#263238;stroke-miterlimit:10"></path><path d="M213.69,376.73v-27a4.33,4.33,0,0,1,4.33-4.33h57.67a4.33,4.33,0,0,1,4.33,4.33v32.35" style="fill:none;stroke:#263238;stroke-miterlimit:10"></path><path d="M280,408.69v33.69a4.33,4.33,0,0,1-4.33,4.33H218a4.33,4.33,0,0,1-4.33-4.33V383.2" style="fill:none;stroke:#263238;stroke-miterlimit:10"></path><line x1="217.78" y1="361.17" x2="275.89" y2="361.17" style="fill:none;stroke:#263238;stroke-miterlimit:10"></line><line x1="245.54" y1="378.69" x2="275.89" y2="378.69" style="fill:none;stroke:#263238;stroke-miterlimit:10"></line><line x1="217.78" y1="378.69" x2="240.81" y2="378.69" style="fill:none;stroke:#263238;stroke-miterlimit:10"></line><line x1="217.78" y1="396.22" x2="275.89" y2="396.22" style="fill:none;stroke:#263238;stroke-miterlimit:10"></line><line x1="265.48" y1="413.74" x2="275.89" y2="413.74" style="fill:none;stroke:#263238;stroke-miterlimit:10"></line><line x1="217.78" y1="413.74" x2="260.24" y2="413.74" style="fill:none;stroke:#263238;stroke-miterlimit:10"></line><line x1="217.78" y1="431.26" x2="275.89" y2="431.26" style="fill:none;stroke:#263238;stroke-miterlimit:10"></line><line x1="179.05" y1="346.11" x2="210.71" y2="346.11" style="fill:none;stroke:#263238;stroke-miterlimit:10"></line><path d="M288.66,410.43a9.59,9.59,0,0,1-6.68-2.7l-6.19-6.14a2.24,2.24,0,0,1,3.11-3.22l1.22,1.14-6.23-12.81a2.7,2.7,0,0,1-.08-2.07,2.65,2.65,0,0,1,4.87-.2L281,389a2.74,2.74,0,0,1,1.66-1,3.6,3.6,0,0,1,2.46.71,2.68,2.68,0,0,1,1.74-1,3.23,3.23,0,0,1,2.08.5,1.75,1.75,0,0,1,1.82-1.1,2.51,2.51,0,0,1,2,1.32l4.4,8.09a9.6,9.6,0,0,1-8.55,13.95Zm-11.29-11.67h-.16a1.24,1.24,0,0,0-.72,2.11l6.19,6.13a8.59,8.59,0,0,0,13.64-10.07l-4.38-8.07a1.51,1.51,0,0,0-1.2-.8c-.41,0-.85.07-1,1l-.15.91-.68-.62a2.75,2.75,0,0,0-1.9-.69,2,2,0,0,0-1.35,1l-.32.51-.45-.41a3,3,0,0,0-2.07-.8,2.16,2.16,0,0,0-1.45,1.2l-.48.83-3.12-6.16a1.65,1.65,0,0,0-3,1.41l8.45,17.55-5-4.72A1.21,1.21,0,0,0,277.37,398.76Z" style="fill:#263238"></path><path d="M283.24,395.86a.51.51,0,0,1-.46-.31l-2.3-5.41a.51.51,0,0,1,.27-.66.5.5,0,0,1,.65.27l2.3,5.41a.5.5,0,0,1-.26.66A.45.45,0,0,1,283.24,395.86Z" style="fill:#263238"></path><path d="M287.25,394.67a.5.5,0,0,1-.46-.3l-2-4.75a.5.5,0,0,1,.26-.66.52.52,0,0,1,.66.27l2,4.75a.49.49,0,0,1-.27.65A.41.41,0,0,1,287.25,394.67Z" style="fill:#263238"></path><path d="M291.18,393.63a.48.48,0,0,1-.45-.29l-1.93-4.15a.49.49,0,0,1,.24-.66.5.5,0,0,1,.67.24l1.93,4.15a.49.49,0,0,1-.46.71Z" style="fill:#263238"></path><rect x="267" y="47.35" width="14" height="14" transform="translate(41.82 209.67) rotate(-45)" style="fill:none;stroke:#263238;stroke-linecap:round;stroke-linejoin:round"></rect><rect x="439.1" y="156.35" width="14" height="14" transform="translate(15.15 363.28) rotate(-45)" style="fill:none;stroke:#263238;stroke-linecap:round;stroke-linejoin:round"></rect><rect x="136.1" y="396.35" width="14" height="14" transform="translate(-243.3 219.33) rotate(-45)" style="fill:none;stroke:#263238;stroke-linecap:round;stroke-linejoin:round"></rect><rect x="251.78" y="64.18" width="7.64" height="7.64" transform="translate(26.78 200.65) rotate(-45)" style="fill:none;stroke:#263238;stroke-linecap:round;stroke-linejoin:round"></rect><rect x="246.78" y="327.18" width="7.64" height="7.64" transform="translate(-160.65 274.15) rotate(-45)" style="fill:none;stroke:#263238;stroke-linecap:round;stroke-linejoin:round"></rect><circle cx="200" cy="375" r="4" style="fill:none;stroke:#263238;stroke-linecap:round;stroke-linejoin:round"></circle><circle cx="328" cy="331" r="4" style="fill:none;stroke:#263238;stroke-linecap:round;stroke-linejoin:round"></circle><circle cx="439" cy="29" r="10" style="fill:none;stroke:#ffc800;stroke-linecap:round;stroke-linejoin:round"></circle><circle cx="33" cy="101.35" r="20" style="fill:none;stroke:#ffc800;stroke-linecap:round;stroke-linejoin:round"></circle></g><g id="freepik--Screens--inject-62"><polygon points="144.34 78.35 135.59 63.56 55.06 58.26 55.06 73.12 55.06 78.47 55.06 325.74 350.08 306.31 350.08 90.39 144.34 78.35" style="fill:#263238"></polygon><polygon points="348.42 301.82 57.62 320.19 57.62 80.08 348.42 96.12 348.42 301.82" style="fill:#e5e5e5"></polygon><g style="clip-path:url(#freepik--clip-path--inject-62)"><polygon points="349.64 303.3 343.85 303.67 343.85 94.1 349.64 94.43 349.64 303.3" style="opacity:0.17"></polygon><polygon points="349.64 301.6 343.85 301.96 343.85 220.81 349.64 220.71 349.64 301.6" style="opacity:0.17"></polygon><polygon points="348.75 104.55 56.27 89.83 56.27 76.76 348.75 93.36 348.75 104.55" style="fill:#ffc800;stroke:#263238;stroke-miterlimit:10"></polygon></g><polygon points="348.42 301.82 57.62 320.19 57.62 80.08 348.42 96.12 348.42 301.82" style="fill:none;stroke:#263238;stroke-linecap:round;stroke-linejoin:round"></polygon><polygon points="334 133.64 288.63 131.92 288.58 131.92 240.81 130.11 240.76 130.1 190.4 128.2 190.34 128.19 137.18 126.18 137.12 126.18 80.89 124.05 80.89 142.44 80.89 142.44 80.89 311.03 333.89 297.16 333.89 149.72 334 149.72 334 133.64" style="opacity:0.2"></polygon><polygon points="157.66 137.75 100.99 136.19 100.99 117.72 157.66 119.79 157.66 137.75" style="fill:#ffc800;stroke:#263238;stroke-miterlimit:10"></polygon><polygon points="141.53 129.96 117.79 129.22 117.79 125.77 141.53 126.55 141.53 129.96" style="fill:#"></polygon><polygon points="211.32 139.22 157.72 137.75 157.72 119.8 211.32 121.75 211.32 139.22" style="fill:#ffc800;stroke:#263238;stroke-miterlimit:10"></polygon><polygon points="262.15 140.61 211.38 139.22 211.38 121.75 262.15 123.6 262.15 140.61" style="fill:#ffc800;stroke:#263238;stroke-miterlimit:10"></polygon><polygon points="310.36 141.93 310.36 125.36 262.2 123.61 262.2 140.61 100.99 136.19 100.99 305.45 356.06 291.24 356.06 143.19 310.36 141.93" style="fill:#fff;stroke:#263238;stroke-linecap:round;stroke-linejoin:round"></polygon><polygon points="356.16 143.19 310.42 141.93 310.42 125.36 356.16 127.03 356.16 143.19" style="fill:#ffc800;stroke:#263238;stroke-miterlimit:10"></polygon><polygon points="348.95 275.65 219.74 281.7 219.74 170.83 348.95 172.26 348.95 275.65" style="fill:#fff;stroke:#263238;stroke-linecap:round;stroke-linejoin:round"></polygon><polygon points="287.13 172 255.04 171.66 255.04 184.9 287.13 185.02 287.13 172" style="fill:#ffc800"></polygon><line x1="329.32" y1="200.49" x2="339.18" y2="200.44" style="fill:none;stroke:#263238;stroke-linecap:round;stroke-linejoin:round"></line><line x1="270.7" y1="200.76" x2="323.32" y2="200.52" style="fill:none;stroke:#263238;stroke-linecap:round;stroke-linejoin:round"></line><line x1="227.94" y1="200.96" x2="264.95" y2="200.79" style="fill:none;stroke:#263238;stroke-linecap:round;stroke-linejoin:round"></line><line x1="297.08" y1="207.59" x2="339.18" y2="207.24" style="fill:none;stroke:#263238;stroke-linecap:round;stroke-linejoin:round"></line><line x1="273.24" y1="207.79" x2="290.24" y2="207.65" style="fill:none;stroke:#263238;stroke-linecap:round;stroke-linejoin:round"></line><line x1="227.94" y1="208.18" x2="265.59" y2="207.86" style="fill:none;stroke:#263238;stroke-linecap:round;stroke-linejoin:round"></line><line x1="252.69" y1="215.09" x2="339.18" y2="214.03" style="fill:none;stroke:#263238;stroke-linecap:round;stroke-linejoin:round"></line><line x1="227.94" y1="215.39" x2="244.21" y2="215.19" style="fill:none;stroke:#263238;stroke-linecap:round;stroke-linejoin:round"></line><line x1="318.5" y1="221.16" x2="339.18" y2="220.82" style="fill:none;stroke:#263238;stroke-linecap:round;stroke-linejoin:round"></line><line x1="277.68" y1="221.81" x2="311.21" y2="221.27" style="fill:none;stroke:#263238;stroke-linecap:round;stroke-linejoin:round"></line><line x1="227.94" y1="222.61" x2="270.7" y2="221.92" style="fill:none;stroke:#263238;stroke-linecap:round;stroke-linejoin:round"></line><line x1="265.59" y1="229.08" x2="339.18" y2="227.62" style="fill:none;stroke:#263238;stroke-linecap:round;stroke-linejoin:round"></line><line x1="227.94" y1="229.82" x2="258.51" y2="229.22" style="fill:none;stroke:#263238;stroke-linecap:round;stroke-linejoin:round"></line><line x1="329.32" y1="234.35" x2="339.18" y2="234.12" style="fill:none;stroke:#263238;stroke-linecap:round;stroke-linejoin:round"></line><line x1="270.7" y1="235.72" x2="323.32" y2="234.49" style="fill:none;stroke:#263238;stroke-linecap:round;stroke-linejoin:round"></line><line x1="227.94" y1="236.72" x2="264.95" y2="235.86" style="fill:none;stroke:#263238;stroke-linecap:round;stroke-linejoin:round"></line><line x1="297.08" y1="242.06" x2="339.18" y2="240.91" style="fill:none;stroke:#263238;stroke-linecap:round;stroke-linejoin:round"></line><line x1="273.24" y1="242.7" x2="290.24" y2="242.24" style="fill:none;stroke:#263238;stroke-linecap:round;stroke-linejoin:round"></line><line x1="227.94" y1="243.94" x2="265.59" y2="242.91" style="fill:none;stroke:#263238;stroke-linecap:round;stroke-linejoin:round"></line><line x1="252.69" y1="250.39" x2="339.18" y2="247.71" style="fill:none;stroke:#263238;stroke-linecap:round;stroke-linejoin:round"></line><line x1="227.94" y1="251.15" x2="244.21" y2="250.65" style="fill:none;stroke:#263238;stroke-linecap:round;stroke-linejoin:round"></line><line x1="318.5" y1="255.22" x2="339.18" y2="254.5" style="fill:none;stroke:#263238;stroke-linecap:round;stroke-linejoin:round"></line><line x1="277.68" y1="256.64" x2="311.21" y2="255.47" style="fill:none;stroke:#263238;stroke-linecap:round;stroke-linejoin:round"></line><line x1="227.94" y1="258.37" x2="270.7" y2="256.88" style="fill:none;stroke:#263238;stroke-linecap:round;stroke-linejoin:round"></line><line x1="265.59" y1="264.13" x2="339.18" y2="261.29" style="fill:none;stroke:#263238;stroke-linecap:round;stroke-linejoin:round"></line><line x1="227.94" y1="265.58" x2="258.51" y2="264.4" style="fill:none;stroke:#263238;stroke-linecap:round;stroke-linejoin:round"></line><line x1="223.56" y1="185.15" x2="347.84" y2="185.59" style="fill:none;stroke:#263238;stroke-linecap:round;stroke-linejoin:round"></line><line x1="255.04" y1="171.66" x2="255.04" y2="184.9" style="fill:none;stroke:#263238;stroke-linecap:round;stroke-linejoin:round"></line><line x1="287.13" y1="172.01" x2="287.13" y2="185.02" style="fill:none;stroke:#263238;stroke-linecap:round;stroke-linejoin:round"></line><line x1="318.15" y1="172.34" x2="318.15" y2="185.14" style="fill:none;stroke:#263238;stroke-linecap:round;stroke-linejoin:round"></line><polygon points="281.91 179.71 261.41 179.57 261.41 176.36 281.91 176.53 281.91 179.71" style="fill:#263238"></polygon><polygon points="248.62 179.49 227.38 179.35 227.38 176.08 248.62 176.26 248.62 179.49" style="fill:#ccc"></polygon><polygon points="313.42 179.92 293.61 179.79 293.61 176.63 313.42 176.8 313.42 179.92" style="fill:#cc"></polygon><polygon points="342.95 180.12 323.79 179.99 323.79 176.88 342.95 177.04 342.95 180.12" style="fill:#cc"></polygon><polygon points="210.46 282.13 111.89 286.74 111.89 150.41 210.46 152.43 210.46 282.13" style="fill:#fff;stroke:#263238;stroke-linecap:round;stroke-linejoin:round"></polygon><polygon points="210.46 202.03 185.98 186.26 163.77 235.44 141.78 218.09 111.89 286.74 210.46 282.13 210.46 202.03" style="fill:none;stroke:#263238;stroke-miterlimit:10"></polygon><path d="M149.17,179.49a15,15,0,0,0-14.82-15,14.8,14.8,0,0,0-15,14.82,15,15,0,0,0,15,15A14.82,14.82,0,0,0,149.17,179.49Z" style="fill:none;stroke:#263238;stroke-miterlimit:10"></path><polygon points="195.64 131.65 173.18 130.95 173.18 127.58 195.64 128.32 195.64 131.65" style="fill:#7a7a7"></polygon><polygon points="247.21 133.25 225.93 132.59 225.93 129.31 247.21 130.01 247.21 133.25" style="fill:#7a7a7"></polygon><polygon points="297 134.8 276.83 134.17 276.83 130.99 297 131.65 297 134.8" style="fill:#7a7a7"></polygon><polygon points="343.38 136.24 324.23 135.64 324.23 132.54 343.38 133.17 343.38 136.24" style="fill:#7a7a7"></polygon></g></svg>